<svg height="512" viewBox="0 0 512 512" width="512" xmlns="http://www.w3.org/2000/svg" xmlns:xlink="http://www.w3.org/1999/xlink"><linearGradient id="a" gradientUnits="userSpaceOnUse" x1="4.624" x2="517.695" y1="487.225" y2="-25.847" data-name="New Gradient Swatch 1"><stop offset="0" stop-color="#003f8a"/><stop offset=".518" stop-color="#00d7df"/><stop offset="1" stop-color="#006df0"/></linearGradient><linearGradient id="b" x1="140.449" x2="653.521" xlink:href="#a" y1="623.05" y2="109.979"/><linearGradient id="c" x1="186.7" x2="699.771" xlink:href="#a" y1="669.3" y2="156.229"/><linearGradient id="d" x1="162.814" x2="675.885" xlink:href="#a" y1="645.415" y2="132.343"/><linearGradient id="e" x1="-37.3" x2="475.771" xlink:href="#a" y1="445.3" y2="-67.771"/><linearGradient id="g" x1="12.7" x2="525.771" xlink:href="#a" y1="495.3" y2="-17.771"/><linearGradient id="h" x1="32.7" x2="545.771" xlink:href="#a" y1="515.3" y2="2.229"/><linearGradient id="i" x1="44.7" x2="557.771" xlink:href="#a" y1="527.3" y2="14.229"/><linearGradient id="j" x1="56.7" x2="569.771" xlink:href="#a" y1="539.3" y2="26.229"/><g><path d="m384 296.3v-264.3a8 8 0 0 0 -8-8h-80v-8a8 8 0 0 0 -8-8h-160a8 8 0 0 0 -8 8v8h-80a8 8 0 0 0 -8 8v464a8 8 0 0 0 8 8h336a104 104 0 0 0 8-207.7zm-32-256.3h16v256.3a104.168 104.168 0 0 0 -16 2.5zm-216-16h144v20a12.01 12.01 0 0 1 -12 12h-120a12.01 12.01 0 0 1 -12-12zm-56 16h40v4a28.031 28.031 0 0 0 28 28h120a28.031 28.031 0 0 0 28-28v-4h40v264a103.942 103.942 0 0 0 -47.6 152h-208.4zm-32 448v-448h16v424a8 8 0 0 0 8 8h229.03a104.563 104.563 0 0 0 19.61 16zm328 0a88 88 0 1 1 88-88 88.1 88.1 0 0 1 -88 88z" fill="url(#a)"/><path d="m429.1 370.83a7.976 7.976 0 0 0 -6.1-2.83h-63v-8a8 8 0 0 0 -8-8h-24a8 8 0 0 0 0 16h16v56a8 8 0 0 0 8 8h63a8 8 0 0 0 7.89-6.68l8-48a7.994 7.994 0 0 0 -1.79-6.49zm-20.88 45.17h-48.22v-32h53.56z" fill="url(#b)"/><circle cx="408" cy="448" fill="url(#c)" r="8"/><path d="m361 440c-4.418 0-9 3.582-9 8a8 8 0 0 0 16 0c0-4.418-2.582-8-7-8z" fill="url(#d)"/><path d="m200 304a96.108 96.108 0 0 0 96-96 8 8 0 0 0 -8-8h-80v-80a8 8 0 0 0 -8-8 96 96 0 0 0 0 192zm-8-175.6v79.6a8 8 0 0 0 8 8h79.6a80 80 0 1 1 -87.6-87.6z" fill="url(#e)"/><path d="m224 192h88a8 8 0 0 0 8-8 96.108 96.108 0 0 0 -96-96 8 8 0 0 0 -8 8v88a8 8 0 0 0 8 8zm8-87.6a80.155 80.155 0 0 1 71.6 71.6h-71.6z" fill="url(#e)"/><path d="m104 368h120a8 8 0 0 0 8-8v-32a8 8 0 0 0 -8-8h-120a8 8 0 0 0 -8 8v32a8 8 0 0 0 8 8zm8-32h104v16h-104z" fill="url(#g)"/><path d="m104 392h120a8 8 0 0 0 0-16h-120a8 8 0 0 0 0 16z" fill="url(#h)"/><path d="m104 416h120a8 8 0 0 0 0-16h-120a8 8 0 0 0 0 16z" fill="url(#i)"/><path d="m104 440h120a8 8 0 0 0 0-16h-120a8 8 0 0 0 0 16z" fill="url(#j)"/></g></svg>