<?xml version="1.0" encoding="iso-8859-1"?>
<!-- Generator: Adobe Illustrator 19.0.0, SVG Export Plug-In . SVG Version: 6.00 Build 0)  -->
<svg version="1.1" id="Capa_1" xmlns="http://www.w3.org/2000/svg" xmlns:xlink="http://www.w3.org/1999/xlink" x="0px" y="0px"
	 viewBox="0 0 469.333 469.333" style="enable-background:new 0 0 469.333 469.333;" xml:space="preserve">
<g>
	
		<linearGradient id="SVGID_1_" gradientUnits="userSpaceOnUse" x1="-41.7396" y1="616.2037" x2="-41.7396" y2="571.3637" gradientTransform="matrix(10.6667 0 0 -10.6667 679.8889 6566.5747)">
		<stop  offset="0" style="stop-color:#FFBF3F"/>
		<stop  offset="1" style="stop-color:#FF6A8F"/>
	</linearGradient>
	<path style="fill:url(#SVGID_1_);" d="M469.333,351.068c0-15.488-8.299-29.088-20.683-36.565
		c6.24-7.413,10.016-16.992,10.016-27.435c0-23.531-19.136-42.667-42.667-42.667h-74.667V157.02c0-22.4-18.219-40.619-40.619-40.619
		c-18.667,0-34.88,12.661-39.403,30.773c-0.128,0.512-0.224,1.035-0.267,1.557l-4.853,50.453l-14.837,37.088
		c-1.845-1.515-4.117-2.539-6.688-2.539H32c-17.643,0-32,14.357-32,32v170.667c0,17.643,14.357,32,32,32h202.667
		c5.888,0,10.667-4.768,10.667-10.667H416c23.531,0,42.667-19.136,42.667-42.667c0-10.443-3.776-20.021-10.016-27.435
		C461.035,380.156,469.333,366.556,469.333,351.068z M21.333,436.402V265.735c0-5.888,4.789-10.667,10.667-10.667h117.333v192H32
		C26.123,447.068,21.333,442.29,21.333,436.402z M170.667,447.068v-192H224v192H170.667z M426.667,372.402H416
		c-5.888,0-10.667,4.768-10.667,10.667s4.779,10.667,10.667,10.667c11.765,0,21.333,9.568,21.333,21.333
		c0,11.765-9.568,21.333-21.333,21.333H245.333V265.735c4.363,0,8.277-2.656,9.909-6.709l21.333-53.333
		c0.373-0.939,0.619-1.931,0.715-2.933l4.907-51.104c2.379-8.235,9.899-13.92,18.517-13.92c10.635,0,19.285,8.651,19.285,19.285
		v98.048c0,5.899,4.779,10.667,10.667,10.667H416c11.765,0,21.333,9.568,21.333,21.333c0,11.765-9.568,21.333-21.333,21.333
		c-5.888,0-10.667,4.768-10.667,10.667s4.779,10.667,10.667,10.667h10.667c11.765,0,21.333,9.568,21.333,21.333
		C448,362.834,438.432,372.402,426.667,372.402z"/>
	
		<linearGradient id="SVGID_2_" gradientUnits="userSpaceOnUse" x1="-53.7396" y1="616.2037" x2="-53.7396" y2="571.3637" gradientTransform="matrix(10.6667 0 0 -10.6667 679.8889 6566.5747)">
		<stop  offset="0" style="stop-color:#FFBF3F"/>
		<stop  offset="1" style="stop-color:#FF6A8F"/>
	</linearGradient>
	<circle style="fill:url(#SVGID_2_);" cx="106.667" cy="415.068" r="16"/>
	
		<linearGradient id="SVGID_3_" gradientUnits="userSpaceOnUse" x1="-43.407" y1="616.2037" x2="-43.407" y2="571.3637" gradientTransform="matrix(10.6667 0 0 -10.6667 679.8889 6566.5747)">
		<stop  offset="0" style="stop-color:#FFBF3F"/>
		<stop  offset="1" style="stop-color:#FF6A8F"/>
	</linearGradient>
	<path style="fill:url(#SVGID_3_);" d="M206.677,125.682c-1.867,6.464,2.048,12.512,7.947,13.355
		c5.76,0.811,11.136-2.581,12.555-7.456c1.429-4.853-1.312-10.592-6.763-13.024C215.125,116.178,208.576,119.25,206.677,125.682z"/>
	
		<linearGradient id="SVGID_4_" gradientUnits="userSpaceOnUse" x1="-41.197" y1="616.2037" x2="-41.197" y2="571.3637" gradientTransform="matrix(10.6667 0 0 -10.6667 679.8889 6566.5747)">
		<stop  offset="0" style="stop-color:#FFBF3F"/>
		<stop  offset="1" style="stop-color:#FF6A8F"/>
	</linearGradient>
	<path style="fill:url(#SVGID_4_);" d="M233.195,81.308c-4.661,4.811-4.469,11.84,0.288,15.509
		c4.565,3.531,11.125,3.413,14.635-0.256c3.68-3.509,4.043-9.931,0.619-14.581C245.152,77.148,238.048,76.668,233.195,81.308z"/>
	
		<linearGradient id="SVGID_5_" gradientUnits="userSpaceOnUse" x1="-37.4206" y1="616.2037" x2="-37.4206" y2="571.3637" gradientTransform="matrix(10.6667 0 0 -10.6667 679.8889 6566.5747)">
		<stop  offset="0" style="stop-color:#FFBF3F"/>
		<stop  offset="1" style="stop-color:#FF6A8F"/>
	</linearGradient>
	<path style="fill:url(#SVGID_5_);" d="M283.605,76.466c4.864-1.483,8.448-6.464,7.733-12.416
		c-0.672-5.739-6.699-10.101-13.163-8.213c-6.56,1.493-9.643,8.341-7.413,13.611C273.088,75.047,278.635,77.522,283.605,76.466z"/>
	
		<linearGradient id="SVGID_6_" gradientUnits="userSpaceOnUse" x1="-33.0574" y1="616.2037" x2="-33.0574" y2="571.3637" gradientTransform="matrix(10.6667 0 0 -10.6667 679.8889 6566.5747)">
		<stop  offset="0" style="stop-color:#FFBF3F"/>
		<stop  offset="1" style="stop-color:#FF6A8F"/>
	</linearGradient>
	<path style="fill:url(#SVGID_6_);" d="M329.835,55.836c-6.464-1.888-12.491,2.475-13.163,8.213
		c-0.715,5.952,2.869,10.933,7.733,12.416c4.971,1.056,10.517-1.429,12.853-7.029C339.477,64.178,336.395,57.33,329.835,55.836z"/>
	
		<linearGradient id="SVGID_7_" gradientUnits="userSpaceOnUse" x1="-29.2816" y1="616.2037" x2="-29.2816" y2="571.3637" gradientTransform="matrix(10.6667 0 0 -10.6667 679.8889 6566.5747)">
		<stop  offset="0" style="stop-color:#FFBF3F"/>
		<stop  offset="1" style="stop-color:#FF6A8F"/>
	</linearGradient>
	<path style="fill:url(#SVGID_7_);" d="M374.528,96.818c4.747-3.669,4.939-10.699,0.277-15.509
		c-4.853-4.64-11.957-4.149-15.531,0.672c-3.424,4.651-3.061,11.072,0.619,14.581C363.392,100.22,369.952,100.348,374.528,96.818z"
		/>
	
		<linearGradient id="SVGID_8_" gradientUnits="userSpaceOnUse" x1="-27.0732" y1="616.2037" x2="-27.0732" y2="571.3637" gradientTransform="matrix(10.6667 0 0 -10.6667 679.8889 6566.5747)">
		<stop  offset="0" style="stop-color:#FFBF3F"/>
		<stop  offset="1" style="stop-color:#FF6A8F"/>
	</linearGradient>
	<path style="fill:url(#SVGID_8_);" d="M393.365,139.036c5.909-0.843,9.813-6.891,7.947-13.355
		c-1.899-6.432-8.437-9.504-13.739-7.125c-5.461,2.432-8.192,8.171-6.763,13.024C382.24,136.455,387.616,139.847,393.365,139.036z"
		/>
	
		<linearGradient id="SVGID_9_" gradientUnits="userSpaceOnUse" x1="-48.5484" y1="616.2037" x2="-48.5484" y2="571.3637" gradientTransform="matrix(10.6667 0 0 -10.6667 679.8889 6566.5747)">
		<stop  offset="0" style="stop-color:#FFBF3F"/>
		<stop  offset="1" style="stop-color:#FF6A8F"/>
	</linearGradient>
	<path style="fill:url(#SVGID_9_);" d="M160.651,140.754c5.728,0.427,11.104-3.52,11.957-8.832
		c0.597-5.355-2.645-10.699-8.416-12.171c-5.643-1.451-11.872,2.336-12.64,8.704C150.549,134.791,154.635,140.295,160.651,140.754z"
		/>
	
		<linearGradient id="SVGID_10_" gradientUnits="userSpaceOnUse" x1="-47.2325" y1="616.2037" x2="-47.2325" y2="571.3637" gradientTransform="matrix(10.6667 0 0 -10.6667 679.8889 6566.5747)">
		<stop  offset="0" style="stop-color:#FFBF3F"/>
		<stop  offset="1" style="stop-color:#FF6A8F"/>
	</linearGradient>
	<path style="fill:url(#SVGID_10_);" d="M171.509,97.287c5.451,2.24,11.776,0.139,14.101-4.704
		c2.336-4.843,0.907-10.933-4.181-14.155c-4.864-3.093-11.957-1.408-14.763,4.341C163.872,88.54,166.059,95.047,171.509,97.287z"/>
	
		<linearGradient id="SVGID_11_" gradientUnits="userSpaceOnUse" x1="-44.7484" y1="616.2037" x2="-44.7484" y2="571.3637" gradientTransform="matrix(10.6667 0 0 -10.6667 679.8889 6566.5747)">
		<stop  offset="0" style="stop-color:#FFBF3F"/>
		<stop  offset="1" style="stop-color:#FF6A8F"/>
	</linearGradient>
	<path style="fill:url(#SVGID_11_);" d="M210.123,59.09c3.989-3.605,4.149-10.219,0.384-14.752
		c-3.765-4.523-10.677-4.715-15.403-0.395c-4.405,4.64-4.181,11.637,0.299,15.424C199.904,63.196,206.443,63.015,210.123,59.09z"/>
	
		<linearGradient id="SVGID_12_" gradientUnits="userSpaceOnUse" x1="-41.3501" y1="616.2037" x2="-41.3501" y2="571.3637" gradientTransform="matrix(10.6667 0 0 -10.6667 679.8889 6566.5747)">
		<stop  offset="0" style="stop-color:#FFBF3F"/>
		<stop  offset="1" style="stop-color:#FF6A8F"/>
	</linearGradient>
	<path style="fill:url(#SVGID_12_);" d="M243.808,34.876c4.853-2.293,6.955-8.736,4.811-14.08c-2.251-5.6-8.683-7.712-14.464-4.949
		c-5.867,2.613-7.509,9.856-4.48,14.709C232.885,35.719,238.869,37.02,243.808,34.876z"/>
	
		<linearGradient id="SVGID_13_" gradientUnits="userSpaceOnUse" x1="-37.3456" y1="616.2037" x2="-37.3456" y2="571.3637" gradientTransform="matrix(10.6667 0 0 -10.6667 679.8889 6566.5747)">
		<stop  offset="0" style="stop-color:#FFBF3F"/>
		<stop  offset="1" style="stop-color:#FF6A8F"/>
	</linearGradient>
	<path style="fill:url(#SVGID_13_);" d="M283.264,22.183c5.301-0.96,9.312-6.101,8.928-11.851
		c-0.416-5.995-5.899-10.336-12.224-9.227c-6.368,0.789-10.24,6.773-8.821,12.533C272.555,19.324,277.909,22.812,283.264,22.183z"/>
	
		<linearGradient id="SVGID_14_" gradientUnits="userSpaceOnUse" x1="-33.1334" y1="616.2037" x2="-33.1334" y2="571.3637" gradientTransform="matrix(10.6667 0 0 -10.6667 679.8889 6566.5747)">
		<stop  offset="0" style="stop-color:#FFBF3F"/>
		<stop  offset="1" style="stop-color:#FF6A8F"/>
	</linearGradient>
	<path style="fill:url(#SVGID_14_);" d="M324.736,22.183c5.355,0.629,10.709-2.869,12.117-8.544
		c1.429-5.76-2.443-11.744-8.821-12.533c-6.325-1.109-11.808,3.221-12.224,9.227C315.424,16.082,319.445,21.223,324.736,22.183z"/>
	
		<linearGradient id="SVGID_15_" gradientUnits="userSpaceOnUse" x1="-29.1291" y1="616.2037" x2="-29.1291" y2="571.3637" gradientTransform="matrix(10.6667 0 0 -10.6667 679.8889 6566.5747)">
		<stop  offset="0" style="stop-color:#FFBF3F"/>
		<stop  offset="1" style="stop-color:#FF6A8F"/>
	</linearGradient>
	<path style="fill:url(#SVGID_15_);" d="M364.192,34.876c4.949,2.133,10.933,0.832,14.133-4.32
		c3.029-4.843,1.387-12.096-4.48-14.709c-5.781-2.763-12.213-0.651-14.464,4.949C357.237,26.14,359.328,32.583,364.192,34.876z"/>
	
		<linearGradient id="SVGID_16_" gradientUnits="userSpaceOnUse" x1="-25.7299" y1="616.2037" x2="-25.7299" y2="571.3637" gradientTransform="matrix(10.6667 0 0 -10.6667 679.8889 6566.5747)">
		<stop  offset="0" style="stop-color:#FFBF3F"/>
		<stop  offset="1" style="stop-color:#FF6A8F"/>
	</linearGradient>
	<path style="fill:url(#SVGID_16_);" d="M412.608,59.378c4.48-3.787,4.704-10.784,0.299-15.424
		c-4.725-4.32-11.637-4.128-15.403,0.395s-3.616,11.147,0.384,14.752C401.557,63.015,408.096,63.196,412.608,59.378z"/>
	
		<linearGradient id="SVGID_17_" gradientUnits="userSpaceOnUse" x1="-23.2464" y1="616.2037" x2="-23.2464" y2="571.3637" gradientTransform="matrix(10.6667 0 0 -10.6667 679.8889 6566.5747)">
		<stop  offset="0" style="stop-color:#FFBF3F"/>
		<stop  offset="1" style="stop-color:#FF6A8F"/>
	</linearGradient>
	<path style="fill:url(#SVGID_17_);" d="M436.491,97.287c5.451-2.24,7.637-8.747,4.843-14.517c-2.816-5.76-9.899-7.445-14.763-4.341
		c-5.088,3.211-6.507,9.312-4.181,14.155C424.715,97.426,431.04,99.516,436.491,97.287z"/>
	
		<linearGradient id="SVGID_18_" gradientUnits="userSpaceOnUse" x1="-21.932" y1="616.2037" x2="-21.932" y2="571.3637" gradientTransform="matrix(10.6667 0 0 -10.6667 679.8889 6566.5747)">
		<stop  offset="0" style="stop-color:#FFBF3F"/>
		<stop  offset="1" style="stop-color:#FF6A8F"/>
	</linearGradient>
	<path style="fill:url(#SVGID_18_);" d="M435.381,131.932c0.853,5.312,6.229,9.259,11.957,8.832
		c6.027-0.459,10.101-5.963,9.088-12.299c-0.768-6.379-6.987-10.165-12.64-8.704C438.037,121.234,434.795,126.567,435.381,131.932z"
		/>
</g>
<g>
</g>
<g>
</g>
<g>
</g>
<g>
</g>
<g>
</g>
<g>
</g>
<g>
</g>
<g>
</g>
<g>
</g>
<g>
</g>
<g>
</g>
<g>
</g>
<g>
</g>
<g>
</g>
<g>
</g>
</svg>
