<svg height="512" viewBox="0 0 512 512" width="512" xmlns="http://www.w3.org/2000/svg" xmlns:xlink="http://www.w3.org/1999/xlink"><linearGradient id="a" gradientUnits="userSpaceOnUse" x1="2.651" x2="510.819" y1="477.349" y2="-30.819" data-name="New Gradient Swatch 1"><stop offset="0" stop-color="#003f8a"/><stop offset=".518" stop-color="#00d7df"/><stop offset="1" stop-color="#006df0"/></linearGradient><linearGradient id="b" x1="-9.57" x2="498.599" xlink:href="#a" y1="465.128" y2="-43.04"/><linearGradient id="c" x1="21.584" x2="529.752" xlink:href="#a" y1="496.281" y2="-11.887"/><linearGradient id="d" x1="-17.715" x2="490.453" xlink:href="#a" y1="456.983" y2="-51.185"/><linearGradient id="e" x1="51.413" x2="559.581" xlink:href="#a" y1="526.11" y2="17.942"/><g><path d="m476 48h-440a28.031 28.031 0 0 0 -28 28v296a28.031 28.031 0 0 0 28 28h160.9l-10.67 32h-26.23a8 8 0 0 0 -8 8v24a8 8 0 0 0 8 8h192a8 8 0 0 0 8-8v-24a8 8 0 0 0 -8-8h-26.23l-10.67-32h160.9a28.031 28.031 0 0 0 28-28v-296a28.031 28.031 0 0 0 -28-28zm-132 400v8h-176v-8zm-140.9-16 10.67-32h84.46l10.67 32zm284.9-60a12.01 12.01 0 0 1 -12 12h-440a12.01 12.01 0 0 1 -12-12v-12h464zm0-28h-464v-268a12.01 12.01 0 0 1 12-12h440a12.01 12.01 0 0 1 12 12z" fill="url(#a)"/><path d="m346.46 237.69-46.26-136.37a8 8 0 0 0 -13-3.31l-56.66 52.29-89.3 30.29a8 8 0 0 0 -5.01 10.15l5.14 15.15-15.15 5.14a8.006 8.006 0 0 0 -5.01 10.14l10.28 30.31a8.026 8.026 0 0 0 7.58 5.43 7.833 7.833 0 0 0 2.57-.43l15.15-5.14 5.14 15.16a7.985 7.985 0 0 0 10.15 5l7.57-2.57 15.42 45.46a8.026 8.026 0 0 0 7.58 5.43 7.876 7.876 0 0 0 2.57-.43l30.3-10.28a7.984 7.984 0 0 0 5.01-10.14l-15.42-45.46 36.27-12.3 76.77 7.02c.25.02.49.03.73.03a8 8 0 0 0 7.58-10.57zm-202.38 1.07-5.14-15.15 7.57-2.57 5.14 15.15zm63.57 62.91-12.84-37.88 15.15-5.14 12.85 37.88zm-33.14-47.89-20.56-60.61 75.76-25.7 20.56 60.61zm91.82-28.19-22.36-65.91 45.03-41.56 38.35 113.05z" fill="url(#b)"/><path d="m383.937 148.947a8 8 0 0 0 -10.146-5.006l-30.3 10.28a8 8 0 1 0 5.139 15.152l30.305-10.28a8 8 0 0 0 5.002-10.146z" fill="url(#c)"/><path d="m327.1 123.515a7.995 7.995 0 0 0 10.715-3.634l15.015-30.438a8 8 0 0 0 -14.349-7.08l-15.018 30.437a8 8 0 0 0 3.637 10.715z" fill="url(#d)"/><path d="m387.812 205.018-25.365-12.518a8 8 0 1 0 -7.08 14.349l25.364 12.515a8 8 0 1 0 7.081-14.348z" fill="url(#e)"/></g></svg>