<svg height="512" viewBox="0 0 512 512" width="512" xmlns="http://www.w3.org/2000/svg" xmlns:xlink="http://www.w3.org/1999/xlink"><linearGradient id="a" gradientUnits="userSpaceOnUse" x1="-5.558" x2="501.564" y1="501.558" y2="-5.564" data-name="New Gradient Swatch 1"><stop offset="0" stop-color="#003f8a"/><stop offset=".518" stop-color="#00d7df"/><stop offset="1" stop-color="#006df0"/></linearGradient><linearGradient id="b" x1="-45.558" x2="461.564" xlink:href="#a" y1="461.558" y2="-45.564"/><linearGradient id="c" x1="-69.558" x2="437.564" xlink:href="#a" y1="437.558" y2="-69.564"/><linearGradient id="d" x1="-93.444" x2="413.678" xlink:href="#a" y1="413.673" y2="-93.45"/><linearGradient id="e" x1="-115.808" x2="391.314" xlink:href="#a" y1="391.308" y2="-115.814"/><linearGradient id="f" x1="56.192" x2="563.314" xlink:href="#a" y1="563.308" y2="56.186"/><linearGradient id="g" x1="102.442" x2="609.564" xlink:href="#a" y1="609.558" y2="102.436"/><linearGradient id="h" x1="78.556" x2="585.678" xlink:href="#a" y1="585.673" y2="78.55"/><linearGradient id="i" x1="62.442" x2="569.564" xlink:href="#a" y1="569.558" y2="62.436"/><g><path d="m476 80h-236v-44a28.031 28.031 0 0 0 -28-28h-136a28.031 28.031 0 0 0 -28 28v44h-12a28.031 28.031 0 0 0 -28 28v296a28.031 28.031 0 0 0 28 28h160.9l-10.67 32h-26.23a8 8 0 0 0 -8 8v24a8 8 0 0 0 8 8h192a8 8 0 0 0 8-8v-24a8 8 0 0 0 -8-8h-26.23l-10.67-32h160.9a28.031 28.031 0 0 0 28-28v-296a28.031 28.031 0 0 0 -28-28zm-311.1-56-2.67 8h-36.46l-2.67-8zm-100.9 12a12.01 12.01 0 0 1 12-12h30.23l6.18 18.53a8 8 0 0 0 7.59 5.47h48a8 8 0 0 0 7.59-5.47l6.18-18.53h30.23a12.01 12.01 0 0 1 12 12v240a12.01 12.01 0 0 1 -12 12h-136a12.01 12.01 0 0 1 -12-12zm280 444v8h-176v-8zm-140.9-16 10.67-32h84.46l10.67 32zm284.9-60a12.01 12.01 0 0 1 -12 12h-440a12.01 12.01 0 0 1 -12-12v-12h464zm0-28h-464v-268a12.01 12.01 0 0 1 12-12h12v180a28.031 28.031 0 0 0 28 28h136a28.031 28.031 0 0 0 28-28v-180h236a12.01 12.01 0 0 1 12 12z" fill="url(#a)"/><path d="m160 264h-32a8 8 0 0 0 0 16h32a8 8 0 0 0 0-16z" fill="url(#b)"/><circle cx="168" cy="200" fill="url(#c)" r="8"/><path d="m128 200c0-4.418-2.582-8-7-8s-9 3.582-9 8a8 8 0 0 0 16 0z" fill="url(#d)"/><path d="m88 120h16v56a8 8 0 0 0 8 8h63a8 8 0 0 0 7.892-6.685l8-48a8 8 0 0 0 -7.892-9.315h-63v-8a8 8 0 0 0 -8-8h-24a8 8 0 0 0 0 16zm80.223 48h-48.223v-32h53.557z" fill="url(#e)"/><path d="m415 232h-63v-8a8 8 0 0 0 -8-8h-24a8 8 0 0 0 0 16h16v56a8 8 0 0 0 8 8h63a8 8 0 0 0 7.892-6.685l8-48a8 8 0 0 0 -7.892-9.315zm-14.777 48h-48.223v-32h53.557z" fill="url(#f)"/><circle cx="400" cy="312" fill="url(#g)" r="8"/><path d="m353 304c-4.418 0-9 3.582-9 8a8 8 0 0 0 16 0c0-4.418-2.582-8-7-8z" fill="url(#h)"/><path d="m368 168a96 96 0 1 0 96 96 96.108 96.108 0 0 0 -96-96zm0 176a80 80 0 1 1 80-80 80.091 80.091 0 0 1 -80 80z" fill="url(#i)"/></g></svg>