<?xml version="1.0" encoding="iso-8859-1"?>
<!-- Generator: Adobe Illustrator 19.0.0, SVG Export Plug-In . SVG Version: 6.00 Build 0)  -->
<svg version="1.1" id="Capa_1" xmlns="http://www.w3.org/2000/svg" xmlns:xlink="http://www.w3.org/1999/xlink" x="0px" y="0px"
	 viewBox="0 0 469.333 469.333" style="enable-background:new 0 0 469.333 469.333;" xml:space="preserve">
<g>
	
		<linearGradient id="SVGID_1_" gradientUnits="userSpaceOnUse" x1="-41.7396" y1="616.4684" x2="-41.7396" y2="572.9574" gradientTransform="matrix(10.6667 0 0 -10.6667 679.8889 6577.4448)">
		<stop  offset="0" style="stop-color:#FFBF3F"/>
		<stop  offset="1" style="stop-color:#FF6A8F"/>
	</linearGradient>
	<path style="fill:url(#SVGID_1_);" d="M437.333,0H32C14.357,0,0,14.357,0,32v288c0,17.643,14.357,32,32,32h138.848L142.4,416
		h-9.067c-14.709,0-26.667,11.968-26.667,26.667c0,14.699,11.957,26.667,26.667,26.667H336c14.709,0,26.667-11.968,26.667-26.667
		C362.667,427.968,350.709,416,336,416h-9.067l-28.448-64h138.848c17.643,0,32-14.357,32-32V32C469.333,14.357,454.976,0,437.333,0z
		 M21.333,32c0-5.877,4.779-10.667,10.667-10.667h405.333C443.221,21.333,448,26.123,448,32v234.667H21.333V32z M341.333,442.667
		c0,2.944-2.4,5.333-5.333,5.333H133.333c-2.933,0-5.333-2.389-5.333-5.333c0-2.944,2.4-5.333,5.333-5.333h16H320h16
		C338.933,437.333,341.333,439.723,341.333,442.667z M303.584,416h-59.435h-78.4l28.437-64h80.96L303.584,416z M448,320
		c0,5.877-4.779,10.667-10.667,10.667H32c-5.888,0-10.667-4.789-10.667-10.667v-32H448V320z"/>
	
		<linearGradient id="SVGID_2_" gradientUnits="userSpaceOnUse" x1="-41.7396" y1="616.4684" x2="-41.7396" y2="572.9574" gradientTransform="matrix(10.6667 0 0 -10.6667 679.8889 6577.4448)">
		<stop  offset="0" style="stop-color:#FFBF3F"/>
		<stop  offset="1" style="stop-color:#FF6A8F"/>
	</linearGradient>
	<circle style="fill:url(#SVGID_2_);" cx="234.667" cy="384" r="10.667"/>
	
		<linearGradient id="SVGID_3_" gradientUnits="userSpaceOnUse" x1="-41.7399" y1="616.4684" x2="-41.7399" y2="572.9574" gradientTransform="matrix(10.6667 0 0 -10.6667 679.8889 6577.4448)">
		<stop  offset="0" style="stop-color:#FFBF3F"/>
		<stop  offset="1" style="stop-color:#FF6A8F"/>
	</linearGradient>
	<path style="fill:url(#SVGID_3_);" d="M341.333,96H288c0-29.408-23.925-53.333-53.333-53.333S181.333,66.592,181.333,96H128
		c-3.136,0-6.112,1.376-8.139,3.776c-2.027,2.4-2.901,5.557-2.389,8.651l21.333,128c0.864,5.131,5.312,8.907,10.528,8.907H320
		c5.216,0,9.664-3.776,10.517-8.907l21.333-128c0.523-3.093-0.352-6.251-2.389-8.651C347.445,97.376,344.469,96,341.333,96z
		 M234.667,64c17.643,0,32,14.357,32,32h-64C202.667,78.357,217.024,64,234.667,64z M310.965,224H158.368l-17.771-106.667h40.736
		v21.333c0,5.888,4.768,10.667,10.667,10.667c5.899,0,10.667-4.779,10.667-10.667v-21.333h64v21.333
		c0,5.888,4.768,10.667,10.667,10.667S288,144.555,288,138.667v-21.333h40.736L310.965,224z"/>
	
		<linearGradient id="SVGID_4_" gradientUnits="userSpaceOnUse" x1="-41.7396" y1="616.4684" x2="-41.7396" y2="572.9574" gradientTransform="matrix(10.6667 0 0 -10.6667 679.8889 6577.4448)">
		<stop  offset="0" style="stop-color:#FFBF3F"/>
		<stop  offset="1" style="stop-color:#FF6A8F"/>
	</linearGradient>
	<path style="fill:url(#SVGID_4_);" d="M234.667,202.667c23.563,0,42.667-19.104,42.667-42.667H192
		C192,183.563,211.104,202.667,234.667,202.667z"/>
</g>
<g>
</g>
<g>
</g>
<g>
</g>
<g>
</g>
<g>
</g>
<g>
</g>
<g>
</g>
<g>
</g>
<g>
</g>
<g>
</g>
<g>
</g>
<g>
</g>
<g>
</g>
<g>
</g>
<g>
</g>
</svg>
