<?xml version="1.0" encoding="iso-8859-1"?>
<!-- Generator: Adobe Illustrator 19.0.0, SVG Export Plug-In . SVG Version: 6.00 Build 0)  -->
<svg version="1.1" id="Capa_1" xmlns="http://www.w3.org/2000/svg" xmlns:xlink="http://www.w3.org/1999/xlink" x="0px" y="0px"
	 viewBox="0 0 469.333 469.333" style="enable-background:new 0 0 469.333 469.333;" xml:space="preserve">
<g>
	
		<linearGradient id="SVGID_1_" gradientUnits="userSpaceOnUse" x1="-27.7396" y1="616.4684" x2="-27.7396" y2="573.1354" gradientTransform="matrix(10.6667 0 0 -10.6667 679.8889 6577.4448)">
		<stop  offset="0" style="stop-color:#FFBF3F"/>
		<stop  offset="1" style="stop-color:#FF6A8F"/>
	</linearGradient>
	<circle style="fill:url(#SVGID_1_);" cx="384" cy="309.333" r="10.667"/>
	
		<linearGradient id="SVGID_2_" gradientUnits="userSpaceOnUse" x1="-32.7396" y1="616.4684" x2="-32.7396" y2="573.1354" gradientTransform="matrix(10.6667 0 0 -10.6667 679.8889 6577.4448)">
		<stop  offset="0" style="stop-color:#FFBF3F"/>
		<stop  offset="1" style="stop-color:#FF6A8F"/>
	</linearGradient>
	<circle style="fill:url(#SVGID_2_);" cx="330.667" cy="309.333" r="10.667"/>
	
		<linearGradient id="SVGID_3_" gradientUnits="userSpaceOnUse" x1="-37.7396" y1="616.4684" x2="-37.7396" y2="573.1354" gradientTransform="matrix(10.6667 0 0 -10.6667 679.8889 6577.4448)">
		<stop  offset="0" style="stop-color:#FFBF3F"/>
		<stop  offset="1" style="stop-color:#FF6A8F"/>
	</linearGradient>
	<circle style="fill:url(#SVGID_3_);" cx="277.333" cy="309.333" r="10.667"/>
	
		<linearGradient id="SVGID_4_" gradientUnits="userSpaceOnUse" x1="-41.7396" y1="616.4684" x2="-41.7396" y2="573.1354" gradientTransform="matrix(10.6667 0 0 -10.6667 679.8889 6577.4448)">
		<stop  offset="0" style="stop-color:#FFBF3F"/>
		<stop  offset="1" style="stop-color:#FF6A8F"/>
	</linearGradient>
	<path style="fill:url(#SVGID_4_);" d="M426.667,224H256c-17.643,0-32,14.357-32,32v106.667c0,17.643,14.357,32,32,32h160v48.501
		c-1.696,1.835-5.963,4.832-10.667,4.832H202.667V256c0-17.643-14.357-32-32-32h-64c-17.643,0-32,14.357-32,32v192H64
		c-5.888,0-10.667-4.789-10.667-10.667V234.667c0-5.888-4.768-10.667-10.667-10.667S32,228.779,32,234.667v202.667
		c0,17.643,14.357,32,32,32h341.333c16.939,0,32-13.419,32-24V234.667C437.333,228.779,432.565,224,426.667,224z M96,448V256
		c0-5.877,4.779-10.667,10.667-10.667h64c5.888,0,10.667,4.789,10.667,10.667v192H96z M256,373.333
		c-5.888,0-10.667-4.789-10.667-10.667V256c0-5.877,4.779-10.667,10.667-10.667h160v128H256z"/>
	
		<linearGradient id="SVGID_5_" gradientUnits="userSpaceOnUse" x1="-41.7396" y1="616.4684" x2="-41.7396" y2="573.1354" gradientTransform="matrix(10.6667 0 0 -10.6667 679.8889 6577.4448)">
		<stop  offset="0" style="stop-color:#FFBF3F"/>
		<stop  offset="1" style="stop-color:#FF6A8F"/>
	</linearGradient>
	<path style="fill:url(#SVGID_5_);" d="M437.333,0H32C14.357,0,0,14.357,0,32v32c0,9.419,4.171,17.813,10.667,23.68v65.6
		c0,27.232,22.155,49.387,49.387,49.387h7.893c15.765,0,29.675-7.563,38.72-19.104c9.045,11.541,22.955,19.104,38.72,19.104h7.893
		c15.765,0,29.675-7.563,38.72-19.104c9.045,11.541,22.955,19.104,38.72,19.104h7.893c15.765,0,29.675-7.563,38.72-19.104
		c9.045,11.541,22.955,19.104,38.72,19.104h7.893c15.765,0,29.675-7.563,38.72-19.104c9.045,11.541,22.955,19.104,38.72,19.104
		h7.893c27.232,0,49.387-22.155,49.387-49.387v-65.6c6.496-5.867,10.667-14.261,10.667-23.68V32C469.333,14.357,454.976,0,437.333,0
		z M21.333,32c0-5.877,4.779-10.667,10.667-10.667h405.333C443.221,21.333,448,26.123,448,32v32c0,5.877-4.779,10.667-10.667,10.667
		H32c-5.888,0-10.667-4.789-10.667-10.667V32z M67.947,181.333h-7.893C44.587,181.333,32,168.747,32,153.28V96h64v57.28
		C96,168.747,83.413,181.333,67.947,181.333z M153.28,181.333h-7.893c-15.467,0-28.053-12.587-28.053-28.053V96h64v57.28
		C181.333,168.747,168.747,181.333,153.28,181.333z M238.613,181.333h-7.893c-15.467,0-28.053-12.587-28.053-28.053V96h64v57.28
		C266.667,168.747,254.08,181.333,238.613,181.333z M323.947,181.333h-7.893c-15.467,0-28.053-12.587-28.053-28.053V96h64v57.28
		C352,168.747,339.413,181.333,323.947,181.333z M437.333,153.28c0,15.467-12.587,28.053-28.053,28.053h-7.893
		c-15.467,0-28.053-12.587-28.053-28.053V96h64V153.28z"/>
	
		<linearGradient id="SVGID_6_" gradientUnits="userSpaceOnUse" x1="-50.7396" y1="616.4684" x2="-50.7396" y2="573.1354" gradientTransform="matrix(10.6667 0 0 -10.6667 679.8889 6577.4448)">
		<stop  offset="0" style="stop-color:#FFBF3F"/>
		<stop  offset="1" style="stop-color:#FF6A8F"/>
	</linearGradient>
	<path style="fill:url(#SVGID_6_);" d="M149.333,266.667H128c-5.899,0-10.667,4.779-10.667,10.667S122.101,288,128,288h21.333
		c5.899,0,10.667-4.779,10.667-10.667S155.232,266.667,149.333,266.667z"/>
</g>
<g>
</g>
<g>
</g>
<g>
</g>
<g>
</g>
<g>
</g>
<g>
</g>
<g>
</g>
<g>
</g>
<g>
</g>
<g>
</g>
<g>
</g>
<g>
</g>
<g>
</g>
<g>
</g>
<g>
</g>
</svg>
